<svg width="90" height="48" viewBox="0 0 90 48" fill="none" xmlns="http://www.w3.org/2000/svg">
<path d="M17.6104 33.7802H7.56988C4.85244 33.7802 3.51911 30.4398 5.47554 28.5538C14.3997 19.9511 26.9306 7.58084 31.4429 3.06851C37.0003 -2.48885 44.6051 0.752939 47.7128 3.06851L58.4489 13.5022C59.6724 14.6912 59.6594 16.6597 58.4203 17.8325L52.6092 23.3323C51.4155 24.462 49.535 24.421 48.3918 23.2402L41.3959 16.0149C40.2412 14.8225 38.3378 14.7942 37.1483 15.9518L19.7027 32.9301C19.1426 33.4752 18.3919 33.7802 17.6104 33.7802Z" fill="#0F4D71"/>
<path d="M72.3311 14.2198H82.3716C85.089 14.2198 86.4223 17.5602 84.4659 19.4462C75.5418 28.0489 63.0108 40.4192 58.4985 44.9315C52.9411 50.4889 45.3363 47.2471 42.2286 44.9315L31.4925 34.4978C30.2691 33.3088 30.2821 31.3403 31.5212 30.1675L37.3323 24.6677C38.526 23.538 40.4064 23.579 41.5497 24.7598L48.5456 31.9851C49.7002 33.1775 51.6037 33.2058 52.7932 32.0482L70.2388 15.0699C70.7989 14.5248 71.5495 14.2198 72.3311 14.2198Z" fill="#0F4D71"/>
</svg>
